<?xml version="1.0" encoding="UTF-8"?>
<!DOCTYPE svg PUBLIC "-//W3C//DTD SVG 1.1//EN" "http://www.w3.org/Graphics/SVG/1.1/DTD/svg11.dtd">
<svg version="1.1" xmlns="http://www.w3.org/2000/svg" xmlns:xlink="http://www.w3.org/1999/xlink" x="0" y="0" width="60" height="76.771" viewBox="0, 0, 60, 76.771">
  <g id="Layer_1" transform="translate(0, 0.241)">
    <path d="M58.343,52.419 C58.024,53.115 57.303,54.276 56.329,54.311 C54.593,54.375 54.407,53.485 53.124,51.586 C50.306,47.417 25.72,21.721 21.122,16.751 C17.076,12.381 20.552,9.299 22.164,7.684 C24.187,5.658 30.089,-0.241 30.089,-0.241 C30.089,-0.241 47.694,16.46 55.026,27.872 C62.359,39.284 59.833,49.16 58.343,52.419 M30.092,76.529 C21.94,76.529 15.332,69.921 15.332,61.77 C15.332,58.033 16.818,54.703 19.012,52.02 C21.674,48.767 30.09,39.613 30.09,39.613 C30.09,39.613 38.38,48.899 41.151,51.989 C43.499,54.609 44.853,57.974 44.853,61.77 C44.853,69.921 38.245,76.529 30.092,76.529 M4.977,54.312 C2.345,54.222 -7.366,37.483 10.65,19.659 L22.573,32.684 C22.573,32.684 23.305,33.371 22.494,34.204 C19.649,37.122 7.523,49.283 6.014,53.486 C5.704,54.355 5.25,54.321 4.977,54.312" fill="#FFFFFF"/>
  </g>
</svg>
