<?xml version="1.0" encoding="UTF-8"?>
<!-- Generated by Pixelmator Pro 3.6.12 -->
<svg width="28" height="57" viewBox="0 0 28 57" xmlns="http://www.w3.org/2000/svg">
    <path id="Path" fill="#ffffff" stroke="none" d="M 7.768844 19.989197 C 10.290937 21.889103 13.004157 25.740822 14 27.807791 L 13.859063 33.565258 C 13.339312 35.097008 11.309126 41.075169 6.666781 36.296009 C 4.222375 33.779758 5.354 31.26351 9.8035 30.503822 C 7.258031 30.938322 4.396312 30.220228 3.611187 27.404915 L 3 20.932789 C 3 17.557854 5.949031 18.618668 7.768844 19.989197 Z M 20.231155 19.989197 C 17.709063 21.889103 14.995843 25.740822 14 27.807791 L 14.140937 33.565258 C 14.660688 35.097008 16.690874 41.075169 21.333218 36.296009 C 23.777624 33.779758 22.646 31.26351 18.196499 30.503822 C 20.741968 30.938322 23.603687 30.220228 24.388813 27.404915 L 25 20.932789 C 25 17.557854 22.051313 18.618668 20.231155 19.989197 Z"/>
</svg>
