<?xml version="1.0" encoding="UTF-8"?>
<!-- Generated by Pixelmator Pro 3.6.12 -->
<svg width="32" height="32" viewBox="0 0 32 32" xmlns="http://www.w3.org/2000/svg">
    <path id="Path" fill="#ffffff" stroke="none" d="M 16.666666 3 C 9.327643 3 3.383889 8.943754 3.383889 16.282776 C 3.383889 22.160696 7.186228 27.124989 12.465843 28.88409 C 13.129982 29.000748 13.378313 28.602264 13.378313 28.253448 L 13.362143 25.779387 C 10.025278 26.393858 9.162475 24.966248 8.896818 24.220104 C 8.746666 23.837791 8.099853 22.658512 7.533891 22.343189 C 7.069571 22.093704 6.405432 21.479233 7.51772 21.463062 C 8.564172 21.446892 9.311472 22.426352 9.560958 22.824833 C 10.756408 24.834576 12.665663 24.268614 13.429133 23.919796 C 13.544637 23.056993 13.893454 22.476017 14.275766 22.14337 C 11.320059 21.811878 8.23268 20.666094 8.23268 15.585142 C 8.23268 14.141363 8.746666 12.945911 9.593299 12.016117 C 9.460471 11.683472 8.996151 10.321697 9.726127 8.495604 C 9.726127 8.495604 10.838414 8.146788 13.379469 9.857378 L 20.020857 9.857378 C 22.561911 8.130617 23.673044 8.495604 23.673044 8.495604 C 24.404173 10.321697 23.938698 11.683472 23.80587 12.016117 C 24.652502 12.945911 25.167646 14.124037 25.167646 15.585142 C 25.167646 20.682264 22.062941 21.810722 19.107231 22.14337 C 19.588877 22.559177 20.003532 23.356146 20.003532 24.601261 L 19.987362 28.253448 C 19.987362 28.602264 20.236847 29.018072 20.899832 28.885244 C 26.14826 27.124989 29.949444 22.14337 29.949444 16.282776 C 29.949444 8.943754 24.00569 3 16.666666 3 Z"/>
</svg>
