<?xml version="1.0" encoding="UTF-8"?>
<svg width="256px" height="256px" viewBox="0 0 256 256" xmlns="http://www.w3.org/2000/svg" xmlns:xlink="http://www.w3.org/1999/xlink" version="1.1">
  <!-- Generated by Pixelmator Pro 2.2 -->
  <g id="group">
    <g id="group-1">
      <path id="Path" d="M52.565 101.844 L84.904 101.844 84.904 205.861 52.565 205.861 Z M68.736 50.139 C79.071 50.139 87.471 58.538 87.471 68.892 87.471 79.234 79.071 87.634 68.736 87.634 58.375 87.634 50 79.234 50 68.892 50 58.538 58.375 50.139 68.736 50.139" fill="#ffffff" fill-opacity="1" stroke="none"/>
      <path id="Path-1" d="M105.181 101.844 L136.19 101.844 136.19 116.068 136.632 116.068 C140.948 107.886 151.497 99.268 167.22 99.268 199.958 99.268 206 120.805 206 148.812 L206 205.861 173.685 205.861 173.685 155.277 C173.685 143.212 173.476 127.697 156.886 127.697 140.062 127.697 137.495 140.847 137.495 154.411 L137.495 205.861 105.181 205.861 Z" fill="#ffffff" fill-opacity="1" stroke="none"/>
    </g>
  </g>
</svg>
