<?xml version="1.0" encoding="UTF-8"?>
<!DOCTYPE svg PUBLIC "-//W3C//DTD SVG 1.1//EN" "http://www.w3.org/Graphics/SVG/1.1/DTD/svg11.dtd">
<svg version="1.1" xmlns="http://www.w3.org/2000/svg" xmlns:xlink="http://www.w3.org/1999/xlink" x="0" y="0" width="90" height="90" viewBox="0, 0, 90, 90">
  <g id="Background">
    <rect x="0" y="0" width="90" height="90" fill="#FFFFFF" fill-opacity="0"/>
  </g>
  <g id="Layer_1">
    <path d="M44.583,5 Q35.901,5 29.086,5.934 Q21.524,7.054 17.136,9.014 L15.829,9.761 Q14.336,10.695 12.842,12.095 Q10.788,14.056 9.294,16.483 Q7.334,19.564 6.307,23.298 Q5,27.686 5,32.914 L5,36.368 Q5,43.556 5.093,47.571 Q5.373,58.026 6.774,65.028 Q8.548,73.897 12.562,79.405 Q17.23,85.66 25.072,87.807 Q35.247,90.421 44.676,89.954 Q48.971,89.674 52.892,88.834 Q55.693,88.181 58.026,87.247 L59.8,86.5 L59.427,79.498 L57.373,80.059 Q54.759,80.712 52.052,80.992 Q48.224,81.552 44.77,81.459 Q39.822,81.272 37.301,80.712 Q33.287,79.965 31.046,77.911 Q28.339,75.577 27.779,71.19 Q27.592,69.883 27.592,68.482 L29.926,69.042 Q32.82,69.603 35.994,69.976 Q40.475,70.63 44.676,70.816 Q48.597,71.003 53.265,70.63 Q56.253,70.443 61.481,69.789 Q66.709,69.136 71.47,66.989 Q76.044,64.935 79.078,61.947 Q82.112,58.96 82.673,55.973 Q83.513,51.772 83.886,45.797 Q84.26,41.502 84.353,36.741 L84.353,32.914 Q84.353,27.686 83.046,23.298 Q82.019,19.564 80.059,16.483 Q78.565,14.056 76.511,12.095 Q75.017,10.695 73.524,9.761 L72.217,9.014 Q67.922,7.054 60.36,5.934 Q53.452,5 44.863,5 L44.583,5 z M23.111,34.314 Q25.538,34.314 27.312,36.088 Q29.086,37.861 29.086,40.335 Q29.086,42.809 27.312,44.583 Q25.538,46.357 23.064,46.357 Q20.591,46.357 18.863,44.583 Q17.136,42.809 17.136,40.335 Q17.136,37.861 18.863,36.088 Q20.591,34.314 23.111,34.314 z M44.676,34.314 Q47.197,34.314 48.924,36.088 Q50.651,37.861 50.651,40.335 Q50.651,42.809 48.924,44.583 Q47.197,46.357 44.676,46.357 Q42.156,46.357 40.429,44.583 Q38.702,42.809 38.702,40.335 Q38.702,37.861 40.429,36.088 Q42.156,34.314 44.676,34.314 z M66.242,34.314 Q68.762,34.314 70.49,36.088 Q72.217,37.861 72.217,40.335 Q72.217,42.809 70.49,44.583 Q68.762,46.357 66.288,46.357 Q63.815,46.357 62.041,44.583 Q60.267,42.809 60.267,40.335 Q60.267,37.861 62.041,36.088 Q63.815,34.314 66.242,34.314 z" fill="#FFFFFF"/>
  </g>
</svg>
