<?xml version="1.0" encoding="UTF-8"?>
<!DOCTYPE svg PUBLIC "-//W3C//DTD SVG 1.1//EN" "http://www.w3.org/Graphics/SVG/1.1/DTD/svg11.dtd">
<svg version="1.1" xmlns="http://www.w3.org/2000/svg" xmlns:xlink="http://www.w3.org/1999/xlink" x="0" y="0" width="90" height="90" viewBox="0, 0, 90, 90">
  <g id="Background">
    <rect x="0" y="0" width="90" height="90" fill="#FFFFFF" fill-opacity="0"/>
  </g>
  <g id="Layer_1">
    <path d="M44.927,11.61 Q38.108,11.61 32.755,12.343 Q26.816,13.223 23.369,14.763 L22.343,15.349 Q21.17,16.082 19.996,17.182 Q18.383,18.722 17.21,20.629 Q15.67,23.048 14.864,25.981 Q13.837,29.427 13.837,33.534 L13.837,36.247 Q13.837,41.893 13.911,45.046 Q14.131,53.258 15.23,58.757 Q16.624,65.723 19.776,70.049 Q23.443,74.962 29.602,76.648 Q37.594,78.701 45,78.335 Q48.373,78.115 51.453,77.455 Q53.652,76.942 55.485,76.208 L56.879,75.622 L56.585,70.122 L54.972,70.562 Q52.919,71.076 50.793,71.296 Q47.786,71.736 45.073,71.662 Q41.187,71.516 39.207,71.076 Q36.054,70.489 34.295,68.876 Q32.168,67.043 31.728,63.597 Q31.582,62.57 31.582,61.47 L33.415,61.91 Q35.688,62.35 38.181,62.643 Q41.7,63.157 45,63.303 Q48.08,63.45 51.746,63.157 Q54.092,63.01 58.198,62.497 Q62.305,61.983 66.044,60.297 Q69.637,58.684 72.02,56.337 Q74.403,53.991 74.843,51.645 Q75.503,48.345 75.796,43.652 Q76.089,40.279 76.163,36.54 L76.163,33.534 Q76.163,29.427 75.136,25.981 Q74.33,23.048 72.79,20.629 Q71.617,18.722 70.004,17.182 Q68.83,16.082 67.657,15.349 L66.631,14.763 Q63.258,13.223 57.318,12.343 Q51.892,11.61 45.147,11.61 L44.927,11.61 z M28.062,34.634 Q29.969,34.634 31.362,36.027 Q32.755,37.42 32.755,39.363 Q32.755,41.306 31.362,42.699 Q29.969,44.092 28.025,44.092 Q26.082,44.092 24.726,42.699 Q23.369,41.306 23.369,39.363 Q23.369,37.42 24.726,36.027 Q26.082,34.634 28.062,34.634 z M45,34.634 Q46.98,34.634 48.336,36.027 Q49.693,37.42 49.693,39.363 Q49.693,41.306 48.336,42.699 Q46.98,44.092 45,44.092 Q43.02,44.092 41.664,42.699 Q40.307,41.306 40.307,39.363 Q40.307,37.42 41.664,36.027 Q43.02,34.634 45,34.634 z M61.938,34.634 Q63.918,34.634 65.274,36.027 Q66.631,37.42 66.631,39.363 Q66.631,41.306 65.274,42.699 Q63.918,44.092 61.975,44.092 Q60.031,44.092 58.638,42.699 Q57.245,41.306 57.245,39.363 Q57.245,37.42 58.638,36.027 Q60.031,34.634 61.938,34.634 z" fill="#FFFFFF"/>
  </g>
</svg>
