<?xml version="1.0" encoding="UTF-8"?>
<svg width="400px" height="400px" viewBox="0 0 400 400" xmlns="http://www.w3.org/2000/svg" xmlns:xlink="http://www.w3.org/1999/xlink" version="1.1">
 <!-- Generated by Pixelmator Pro 2.2 -->
 <g id="Logo__x2014__FIXED">
  <path id="Path" d="M153.6 301.6 C247.9 301.6 299.5 223.4 299.5 155.7 299.5 153.5 299.5 151.3 299.4 149.1 309.4 141.9 318.1 132.8 325 122.5 315.8 126.6 305.9 129.3 295.5 130.6 306.1 124.3 314.2 114.2 318.1 102.2 308.2 108.1 297.2 112.3 285.5 114.6 276.1 104.6 262.8 98.4 248.1 98.4 219.8 98.4 196.8 121.4 196.8 149.7 196.8 153.7 197.3 157.6 198.1 161.4 155.5 159.3 117.7 138.8 92.4 107.8 88 115.4 85.5 124.2 85.5 133.6 85.5 151.4 94.6 167.1 108.3 176.3 99.9 176 92 173.7 85.1 169.9 L85.1 170.6 C85.1 195.4 102.8 216.2 126.2 220.9 121.9 222.1 117.4 222.7 112.7 222.7 109.4 222.7 106.2 222.4 103.1 221.8 109.6 242.2 128.6 257 151 257.4 133.4 271.2 111.3 279.4 87.3 279.4 83.2 279.4 79.1 279.2 75.1 278.7 97.7 293.1 124.7 301.6 153.6 301.6" fill="#ffffff" fill-opacity="1" stroke="none"/>
 </g>
</svg>
