<?xml version="1.0" standalone="no"?>
<!DOCTYPE svg PUBLIC "-//W3C//DTD SVG 20010904//EN"
 "http://www.w3.org/TR/2001/REC-SVG-20010904/DTD/svg10.dtd">
<svg version="1.0" xmlns="http://www.w3.org/2000/svg"
 width="1232.000000pt" height="1232.000000pt" viewBox="0 0 1232.000000 1232.000000"
 preserveAspectRatio="xMidYMid meet">
<metadata>
Created by potrace 1.11, written by Peter Selinger 2001-2013
</metadata>
<g transform="translate(0.000000,1232.000000) scale(0.100000,-0.100000)"
fill="#000000" stroke="none">
<path d="M5450 11591 c-399 -400 -734 -738 -745 -752 -11 -13 -38 -47 -61 -74
-46 -56 -124 -182 -124 -201 0 -6 -7 -17 -15 -24 -8 -7 -15 -18 -15 -26 0 -7
-5 -25 -12 -41 -6 -15 -12 -37 -13 -49 -1 -11 -4 -25 -8 -31 -13 -21 -28 -198
-18 -209 3 -3 6 -19 7 -37 2 -34 31 -155 42 -172 4 -5 7 -12 7 -15 1 -8 54
-111 77 -150 38 -65 114 -159 218 -269 25 -27 74 -79 109 -117 81 -87 268
-286 346 -368 33 -35 110 -116 170 -181 61 -64 143 -151 183 -192 39 -41 72
-76 72 -77 0 -2 42 -47 93 -100 50 -53 135 -142 187 -198 52 -56 124 -132 160
-169 36 -37 103 -108 149 -158 47 -50 110 -117 140 -149 31 -32 112 -118 181
-192 69 -73 148 -157 176 -186 28 -30 50 -54 49 -54 -1 0 25 -28 59 -63 34
-35 111 -117 171 -182 61 -65 130 -139 155 -165 25 -26 90 -95 145 -155 55
-59 123 -131 150 -159 28 -29 93 -99 146 -157 54 -57 110 -118 125 -134 16
-17 72 -77 124 -134 52 -57 120 -129 150 -161 30 -32 87 -93 125 -135 39 -42
86 -93 105 -114 19 -21 78 -84 130 -141 183 -199 215 -234 248 -268 17 -18 32
-35 32 -37 0 -2 21 -25 48 -53 26 -27 79 -85 117 -128 39 -43 91 -101 117
-129 26 -28 56 -62 68 -75 35 -40 143 -161 165 -184 11 -12 36 -40 55 -62 41
-47 154 -175 190 -214 14 -15 40 -46 59 -69 18 -23 52 -62 75 -88 22 -25 47
-55 55 -66 8 -11 28 -35 45 -53 17 -18 47 -54 66 -80 19 -25 50 -62 67 -82 18
-21 33 -41 33 -45 0 -5 7 -16 16 -25 18 -17 124 -179 124 -188 0 -4 11 -20 25
-38 14 -17 29 -36 34 -41 4 -6 10 -16 12 -23 2 -6 24 -36 49 -66 44 -53 141
-114 186 -116 126 -5 165 -1 214 26 60 33 124 100 176 186 21 34 39 65 40 68
0 3 8 23 18 45 35 84 53 127 55 137 0 5 10 32 21 60 24 64 89 303 92 341 1 15
5 27 8 27 3 0 7 10 7 23 2 23 5 45 18 117 5 25 9 52 10 60 1 8 5 42 9 75 5 33
10 74 12 90 15 112 18 190 18 420 -1 215 -8 440 -15 440 -1 0 -3 9 -4 20 -1
11 -5 45 -9 75 -4 30 -9 73 -12 95 -5 40 -8 59 -19 105 -9 40 -17 94 -16 113
0 9 -3 17 -7 17 -4 0 -8 10 -8 23 -2 26 -8 54 -34 158 -11 42 -21 85 -23 95
-2 10 -7 26 -10 34 -15 37 -36 109 -42 143 -4 20 -11 40 -16 43 -5 3 -9 15 -9
28 0 12 -3 26 -7 30 -4 3 -8 12 -9 19 -4 22 -71 197 -102 267 -9 19 -17 37
-17 40 -3 19 -30 80 -35 80 -4 0 -7 6 -7 13 0 12 -162 347 -173 357 -3 3 -11
16 -17 30 -22 44 -171 298 -186 315 -4 6 -45 66 -90 135 -44 69 -89 134 -99
144 -10 11 -18 25 -18 32 0 7 -3 14 -7 16 -12 5 -163 218 -163 229 0 5 -3 9
-7 9 -5 0 -33 34 -63 76 -30 41 -64 86 -75 98 -11 13 -29 36 -40 51 -17 24
-86 113 -128 165 -7 8 -35 44 -62 80 -28 36 -53 67 -56 70 -5 5 -125 151 -159
194 -8 10 -27 32 -42 48 -16 16 -28 31 -28 33 0 5 -40 53 -72 87 -10 10 -18
20 -18 23 0 3 -13 18 -30 33 -16 16 -30 34 -30 41 0 6 -4 11 -8 11 -5 0 -30
27 -58 61 -27 33 -65 78 -84 99 -19 21 -49 55 -67 77 -18 21 -48 56 -68 78
-78 87 -141 158 -160 180 -58 66 -144 162 -175 195 -19 20 -69 74 -110 120
-41 46 -92 101 -112 124 -21 22 -38 44 -38 49 0 4 -4 5 -10 2 -5 -3 -10 -2
-10 2 0 5 -19 30 -42 55 -24 25 -52 56 -64 69 -12 13 -30 31 -40 41 -10 9 -48
49 -84 88 -36 40 -110 119 -165 176 -55 57 -100 104 -99 104 16 0 -1394 1411
-1431 1432 -5 3 -336 -322 -735 -721z"/>
<path d="M2972 9038 c-130 -133 -234 -246 -342 -372 -23 -27 -47 -54 -53 -61
-7 -6 -21 -24 -32 -39 -11 -15 -30 -40 -43 -54 -35 -41 -56 -68 -137 -177 -41
-55 -79 -105 -83 -110 -26 -32 -212 -316 -212 -324 0 -5 -4 -11 -9 -13 -10 -4
-161 -264 -161 -278 0 -6 -4 -10 -10 -10 -5 0 -10 -9 -10 -19 0 -11 -3 -21 -7
-23 -13 -5 -131 -250 -188 -390 -14 -35 -30 -72 -35 -83 -15 -35 -62 -160 -64
-170 -2 -5 -21 -68 -44 -140 -41 -130 -89 -303 -99 -360 -2 -16 -6 -39 -8 -50
-2 -11 -4 -20 -5 -20 -2 0 -3 -9 -19 -100 -18 -97 -19 -108 -26 -160 -3 -27
-8 -63 -10 -80 -26 -189 -26 -728 0 -863 2 -10 6 -43 10 -72 4 -29 9 -62 11
-74 2 -12 7 -37 10 -56 2 -19 10 -60 16 -90 6 -30 13 -62 14 -70 21 -109 90
-335 130 -427 8 -17 14 -33 14 -36 0 -3 5 -18 12 -34 6 -15 12 -30 13 -33 0
-3 18 -41 38 -84 20 -43 37 -81 37 -84 0 -3 6 -13 14 -21 8 -9 16 -23 18 -31
2 -8 5 -17 8 -20 8 -7 70 -111 70 -116 0 -2 15 -23 32 -47 18 -24 42 -56 53
-71 11 -16 43 -51 70 -80 118 -120 202 -155 282 -115 41 20 45 27 133 209 28
58 59 119 70 135 11 17 24 39 29 50 5 11 19 30 30 42 12 12 21 26 21 31 0 5
23 39 50 76 28 37 50 69 50 72 0 3 6 12 13 19 19 22 29 35 77 100 60 80 72 94
94 116 11 11 17 19 13 19 -4 0 1 8 11 18 17 18 40 46 97 118 17 21 40 48 53
61 13 13 21 23 18 23 -3 0 7 13 22 29 15 15 36 39 46 52 23 28 124 146 146
169 8 9 36 41 62 71 64 75 168 193 248 280 186 203 284 310 355 384 28 30 100
106 160 171 61 64 139 148 175 185 230 238 514 531 630 649 195 200 196 201
185 285 -6 54 -4 50 -159 219 -44 49 -92 101 -106 116 -14 15 -63 69 -110 120
-47 51 -96 105 -110 120 -93 102 -200 218 -227 247 -18 18 -31 33 -29 33 2 0
-17 22 -43 48 -25 27 -83 89 -127 138 -86 94 -106 115 -188 205 -28 30 -89 97
-136 149 -47 52 -105 115 -130 141 -25 26 -70 76 -102 111 -31 35 -73 81 -93
103 -20 22 -65 71 -99 108 -33 38 -77 85 -96 105 -19 21 -71 77 -114 125 -44
48 -83 87 -86 87 -4 0 -43 -37 -88 -82z"/>
<path d="M6104 5843 c-38 -42 -92 -101 -120 -130 -27 -29 -49 -53 -48 -53 2 0
-7 -10 -19 -23 -12 -12 -56 -60 -97 -106 -41 -45 -91 -100 -110 -121 -85 -92
-191 -209 -236 -259 -27 -30 -57 -61 -66 -70 -10 -8 -18 -18 -18 -22 0 -3 -19
-26 -42 -50 -24 -25 -74 -80 -113 -124 -38 -43 -85 -93 -102 -111 -18 -18 -33
-36 -33 -38 0 -3 -10 -15 -22 -28 -13 -13 -54 -59 -93 -102 -38 -44 -83 -94
-100 -112 -16 -18 -44 -50 -62 -71 -17 -21 -51 -59 -76 -85 -24 -27 -42 -48
-40 -48 1 0 -14 -18 -35 -40 -20 -22 -53 -58 -72 -81 -19 -22 -39 -46 -45 -53
-5 -6 -32 -38 -59 -71 -28 -33 -57 -67 -65 -77 -9 -9 -25 -28 -36 -42 -11 -15
-35 -43 -52 -64 -18 -20 -33 -42 -33 -49 0 -6 -4 -13 -8 -15 -12 -4 -127 -177
-168 -252 -57 -103 -144 -284 -144 -300 0 -8 -4 -17 -9 -20 -9 -6 -57 -147
-53 -158 1 -5 -2 -8 -6 -8 -5 0 -9 -6 -10 -12 -1 -15 -10 -53 -12 -53 -1 0 -3
-7 -5 -15 -2 -8 -11 -44 -20 -80 -18 -75 -22 -91 -30 -144 -3 -21 -7 -48 -10
-60 -18 -84 -26 -444 -12 -566 15 -132 22 -174 39 -250 5 -25 11 -53 14 -64 2
-10 11 -44 20 -75 9 -31 17 -60 19 -66 1 -5 4 -17 7 -25 3 -8 18 -51 33 -95
16 -44 55 -135 87 -202 32 -67 58 -125 58 -129 -1 -3 7 -13 17 -22 10 -9 19
-24 21 -32 2 -8 18 -35 35 -60 18 -25 38 -57 46 -72 8 -16 18 -28 23 -28 4 0
8 -7 8 -15 0 -8 4 -15 8 -15 4 0 15 -12 24 -27 10 -16 29 -41 43 -58 15 -16
39 -45 53 -64 59 -75 273 -281 292 -281 6 0 8 -4 5 -10 -3 -5 0 -10 9 -10 8 0
16 -3 18 -7 7 -16 257 -193 273 -193 3 0 22 -11 43 -24 20 -14 44 -26 52 -28
8 -2 17 -5 20 -9 11 -11 110 -59 124 -59 8 0 16 -4 18 -8 3 -8 136 -61 203
-82 22 -6 47 -14 55 -17 8 -3 24 -8 35 -10 11 -2 31 -7 45 -13 26 -10 143 -35
258 -55 156 -27 530 -27 712 2 37 6 41 6 80 16 14 4 39 8 55 11 17 2 37 7 45
10 8 3 29 7 45 9 47 7 294 92 354 122 29 15 58 28 65 29 6 1 16 4 21 8 6 3 46
25 90 48 44 23 99 55 123 71 24 16 45 29 47 29 5 0 59 36 110 75 22 17 44 33
50 37 5 4 22 18 36 30 15 13 48 41 75 63 59 49 181 172 237 238 23 27 47 55
52 61 6 6 22 27 35 46 13 19 27 37 30 40 14 11 110 158 110 169 0 6 5 11 10
11 6 0 10 7 10 15 0 8 5 15 12 15 6 0 8 3 5 6 -4 4 2 19 13 34 11 16 20 32 20
37 0 5 8 20 17 33 21 29 83 170 83 187 0 6 3 13 8 15 15 6 100 282 117 377 3
19 8 37 10 41 2 3 6 28 9 55 4 28 8 61 11 75 19 90 29 477 14 517 -5 13 -4 25
2 28 5 4 6 12 2 18 -4 7 -8 20 -9 30 -1 9 -2 18 -3 20 -2 1 -4 25 -6 52 -2 28
-6 61 -9 75 -3 14 -9 39 -12 55 -4 17 -8 39 -10 50 -2 22 -42 172 -51 195 -6
16 -11 32 -16 53 -1 6 -5 17 -8 22 -4 6 -14 34 -23 63 -10 28 -21 52 -25 52
-4 0 -7 9 -8 20 -2 18 -90 207 -103 220 -3 3 -16 25 -29 50 -14 25 -28 47 -31
50 -4 3 -14 19 -23 35 -29 58 -189 261 -282 360 -16 17 -55 60 -85 95 -30 34
-66 75 -80 90 -99 108 -120 131 -120 135 0 2 -17 22 -37 43 -37 39 -69 74
-185 203 -31 35 -71 81 -90 101 -18 20 -53 60 -78 88 -25 29 -56 64 -70 79
-14 15 -54 60 -90 100 -36 40 -76 85 -90 101 -14 15 -53 58 -86 96 -34 38 -73
81 -85 95 -13 14 -41 46 -63 70 -21 24 -58 65 -82 91 -24 26 -44 48 -44 51 0
2 -23 28 -50 58 -113 121 -130 139 -126 139 2 0 -17 22 -43 49 -67 71 -165
182 -174 197 -4 8 -16 18 -26 23 -15 9 -30 -3 -87 -66z"/>
</g>
</svg>
